<svg width="54" height="32" viewBox="0 0 54 32" fill="none" xmlns="http://www.w3.org/2000/svg">
<g clip-path="url(#clip0_2951_18046)">
<path d="M52.1845 9.71875H26.0688C25.4473 9.71875 24.9434 10.2181 24.9434 10.834V11.8127C24.9434 12.4286 25.4473 12.9279 26.0688 12.9279H52.1845C52.8061 12.9279 53.31 12.4286 53.31 11.8127V10.834C53.31 10.2181 52.8061 9.71875 52.1845 9.71875Z" stroke="#F36C21" stroke-miterlimit="10" stroke-linecap="round"/>
<path d="M51.4497 13.6328H26.4824V26.0826H51.4497V13.6328Z" stroke="#F36C21" stroke-miterlimit="10" stroke-linecap="round"/>
<path d="M36.702 29.8604H26.6875" stroke="#F36C21" stroke-miterlimit="10" stroke-linecap="round"/>
<path d="M51.8152 29.8604H41.8008" stroke="#F36C21" stroke-miterlimit="10" stroke-linecap="round"/>
<path d="M39.277 29.9072H39.0703" stroke="#F36C21" stroke-miterlimit="10" stroke-linecap="round"/>
<path d="M26.7815 29.8608C26.5408 29.8735 26.3 29.8366 26.0743 29.7525C25.8486 29.6683 25.643 29.5388 25.4704 29.372C25.2977 29.2052 25.1618 29.0048 25.0713 28.7834C24.9807 28.562 24.9373 28.3244 24.944 28.0855V28.0855C24.941 27.8565 24.9839 27.6291 25.0703 27.4166C25.1566 27.2041 25.2847 27.0107 25.4471 26.8477C25.6095 26.6846 25.803 26.5552 26.0163 26.4668C26.2296 26.3785 26.4585 26.333 26.6897 26.333H51.6799C51.9111 26.333 52.14 26.3785 52.3533 26.4668C52.5666 26.5552 52.76 26.6846 52.9224 26.8477C53.0848 27.0107 53.2129 27.2041 53.2993 27.4166C53.3857 27.6291 53.4286 27.8565 53.4255 28.0855C53.4255 28.5443 53.2416 28.9843 52.9142 29.3087C52.5869 29.6331 52.1429 29.8153 51.6799 29.8153" stroke="#F36C21" stroke-miterlimit="10" stroke-linecap="round"/>
<path d="M30.6185 6.12207H31.9737C32.3879 6.12207 32.7852 6.28513 33.0781 6.57538C33.371 6.86563 33.5356 7.25929 33.5356 7.66976V9.69541H29.0566V7.66976C29.0566 7.25929 29.2212 6.86563 29.5141 6.57538C29.807 6.28513 30.2043 6.12207 30.6185 6.12207V6.12207Z" stroke="#F36C21" stroke-miterlimit="10" stroke-linecap="round"/>
<path d="M46.4901 6.16699H47.8453C48.2595 6.16699 48.6568 6.33005 48.9497 6.6203C49.2426 6.91055 49.4071 7.30421 49.4071 7.71468V9.74033H44.9512V7.71468C44.9512 7.30421 45.1157 6.91055 45.4086 6.6203C45.7015 6.33005 46.0988 6.16699 46.5131 6.16699H46.4901Z" stroke="#F36C21" stroke-miterlimit="10" stroke-linecap="round"/>
<path d="M38.9759 15.5215L36.679 19.0721C36.6588 19.0912 36.6428 19.1141 36.6318 19.1396C36.6209 19.165 36.6152 19.1924 36.6152 19.22C36.6152 19.2476 36.6209 19.275 36.6318 19.3004C36.6428 19.3259 36.6588 19.3488 36.679 19.3679L38.7462 20.5742L38.0801 24.2158H38.1949L41.3417 20.1646C41.3747 20.1247 41.3982 20.078 41.4104 20.0279C41.4226 19.9778 41.4232 19.9256 41.4122 19.8753C41.4011 19.8249 41.3787 19.7777 41.3466 19.7371C41.3145 19.6965 41.2736 19.6637 41.2268 19.6411L39.3204 18.7989V15.5442L38.9759 15.5215Z" stroke="#F36C21" stroke-miterlimit="10" stroke-linecap="round"/>
<path d="M44.0762 19.8916H47.935" stroke="#F36C21" stroke-miterlimit="10" stroke-linecap="round"/>
<path d="M32.3398 17.9805V21.7359" stroke="#F36C21" stroke-miterlimit="10" stroke-linecap="round"/>
<path d="M30.3438 19.8936L34.3403 19.8477" stroke="#F36C21" stroke-miterlimit="10" stroke-linecap="round"/>
<path d="M0.574219 28.3348L0.826877 7.69141" stroke="#F36C21" stroke-miterlimit="10" stroke-linecap="round"/>
<path d="M0.941722 2.73178C0.941722 2.23106 0.574219 0.774414 1.51595 0.774414H22.4636C22.7073 0.774414 22.941 0.870331 23.1133 1.04106C23.2856 1.2118 23.3824 1.44336 23.3824 1.68482V28.3369C23.3824 28.5784 23.2856 28.8099 23.1133 28.9807C22.941 29.1514 22.7073 29.2473 22.4636 29.2473H1.51595C1.39337 29.2504 1.27143 29.2291 1.15729 29.1847C1.04316 29.1403 0.939149 29.0737 0.851386 28.9889C0.763624 28.904 0.693887 28.8026 0.646286 28.6907C0.598684 28.5787 0.57418 28.4584 0.574219 28.3369" stroke="#F36C21" stroke-miterlimit="10" stroke-linecap="round"/>
<path d="M0.875 4.30176V6.05429" stroke="#F36C21" stroke-miterlimit="10" stroke-linecap="round"/>
<path d="M12.7684 16.7047L9.78245 19.8001C9.74037 19.8427 9.7168 19.8999 9.7168 19.9594C9.7168 20.019 9.74037 20.0762 9.78245 20.1188L11.597 21.6664L10.3107 25.126L14.1236 21.6664C14.1622 21.6344 14.1933 21.5944 14.2146 21.5491C14.2359 21.5039 14.2469 21.4546 14.2469 21.4047C14.2469 21.3548 14.2359 21.3055 14.2146 21.2603C14.1933 21.2151 14.1622 21.175 14.1236 21.143L12.4009 19.9822L12.9981 16.8413C13.0073 16.8121 13.0063 16.7806 12.9953 16.752C12.9843 16.7234 12.964 16.6993 12.9375 16.6835C12.911 16.6678 12.8799 16.6613 12.8492 16.6651C12.8186 16.669 12.7901 16.6829 12.7684 16.7047V16.7047Z" stroke="#F36C21" stroke-miterlimit="10" stroke-linecap="round"/>
<path d="M15.7809 4.30176H8.15525C6.91208 4.30176 5.9043 5.30038 5.9043 6.53225V8.4441C5.9043 9.67596 6.91208 10.6746 8.15525 10.6746H15.7809C17.0241 10.6746 18.0319 9.67596 18.0319 8.4441V6.53225C18.0319 5.30038 17.0241 4.30176 15.7809 4.30176Z" stroke="#F36C21" stroke-miterlimit="10" stroke-linecap="round"/>
<path d="M17.1827 13.0859H13.99C13.508 13.0859 13.1172 13.4732 13.1172 13.9508V14.7019C13.1172 15.1796 13.508 15.5668 13.99 15.5668H17.1827C17.6647 15.5668 18.0555 15.1796 18.0555 14.7019V13.9508C18.0555 13.4732 17.6647 13.0859 17.1827 13.0859Z" stroke="#F36C21" stroke-miterlimit="10" stroke-linecap="round"/>
<path d="M9.9698 13.0859H6.77712C6.29507 13.0859 5.9043 13.4732 5.9043 13.9508V14.7019C5.9043 15.1796 6.29507 15.5668 6.77712 15.5668H9.9698C10.4518 15.5668 10.8426 15.1796 10.8426 14.7019V13.9508C10.8426 13.4732 10.4518 13.0859 9.9698 13.0859Z" stroke="#F36C21" stroke-miterlimit="10" stroke-linecap="round"/>
<path d="M0.691406 18.0029H3.6544" stroke="#F36C21" stroke-miterlimit="10" stroke-linecap="round"/>
<path d="M0.826172 19.7314H3.65135" stroke="#F36C21" stroke-miterlimit="10" stroke-linecap="round"/>
<path d="M0.826172 21.4854H3.65135" stroke="#F36C21" stroke-miterlimit="10" stroke-linecap="round"/>
<path d="M0.826172 23.1699H3.65135" stroke="#F36C21" stroke-miterlimit="10" stroke-linecap="round"/>
<path d="M20.4648 18.0029H23.0603" stroke="#F36C21" stroke-miterlimit="10" stroke-linecap="round"/>
<path d="M20.0527 19.7314H23.0617" stroke="#F36C21" stroke-miterlimit="10" stroke-linecap="round"/>
<path d="M20.0527 21.4854H23.0617" stroke="#F36C21" stroke-miterlimit="10" stroke-linecap="round"/>
<path d="M23.0617 23.1699H20.0527" stroke="#F36C21" stroke-miterlimit="10" stroke-linecap="round"/>
<path d="M0.691406 26.6973H17.7114" stroke="#F36C21" stroke-miterlimit="10" stroke-linecap="round"/>
<path d="M19.5684 26.6973H23.0596" stroke="#F36C21" stroke-miterlimit="10" stroke-linecap="round"/>
<path d="M2.59786 29.2701H6.38773V29.8391C6.38773 30.0125 6.35328 30.1841 6.28633 30.3443C6.21938 30.5045 6.12125 30.65 5.99754 30.7726C5.87384 30.8952 5.72698 30.9924 5.56535 31.0587C5.40372 31.1251 5.23048 31.1592 5.05554 31.1592H3.90709C3.73321 31.1592 3.56106 31.125 3.4007 31.0583C3.24035 30.9917 3.09498 30.8941 2.97311 30.7712C2.85123 30.6483 2.75527 30.5026 2.69085 30.3426C2.62642 30.1826 2.59481 30.0114 2.59786 29.8391V29.2246V29.2701Z" stroke="#F36C21" stroke-miterlimit="10" stroke-linecap="round"/>
<path d="M17.7109 29.2698H21.3171V29.8388C21.3171 30.195 21.1743 30.5365 20.9201 30.7884C20.666 31.0402 20.3213 31.1817 19.9619 31.1817H18.6986C18.4367 31.1817 18.1854 31.0786 18.0002 30.895C17.815 30.7115 17.7109 30.4626 17.7109 30.203V29.2471V29.2698Z" stroke="#F36C21" stroke-miterlimit="10" stroke-linecap="round"/>
</g>
<defs>
<clipPath id="clip0_2951_18046">
<rect width="54" height="31.5" fill="white" transform="translate(0 0.25)"/>
</clipPath>
</defs>
</svg>
